<?xml version="1.0" encoding="UTF-8"?>
<svg version="1.1" xmlns="http://www.w3.org/2000/svg" width="3840" height="2160">
<path d="M0 0 C2 1 2 1 2.85415649 2.98570251 C3.13898895 3.86303543 3.42382141 4.74036835 3.71728516 5.64428711 C4.04651978 6.64601456 4.37575439 7.647742 4.71496582 8.67982483 C5.24664368 10.33684669 5.24664368 10.33684669 5.7890625 12.02734375 C6.16430054 13.1768602 6.53953857 14.32637665 6.92614746 15.51072693 C7.95202675 18.65911012 8.97101916 21.80956572 9.98691559 24.96117401 C11.05740818 28.27678913 12.13654507 31.58959021 13.21435547 34.90283203 C19.23103959 53.41648012 25.16699236 71.95623265 31.07861328 90.50366211 C36.16598281 106.45551234 41.35765943 122.37190407 46.57632446 138.28121948 C51.72381288 153.97846605 56.7979694 169.69730591 61.8125 185.4375 C67.56918569 203.50605578 73.43520423 221.53717183 79.35922623 239.55141449 C86.01263822 259.78436215 92.62296892 280.0302702 99.125 300.3125 C99.46515137 301.37065918 99.80530273 302.42881836 100.15576172 303.51904297 C101.10928219 306.48705646 102.05920253 309.45619519 103.0078125 312.42578125 C103.42197922 313.71365288 103.42197922 313.71365288 103.84451294 315.02754211 C104.22916214 316.23654427 104.22916214 316.23654427 104.62158203 317.4699707 C104.84105499 318.15646194 105.06052795 318.84295319 105.28665161 319.55024719 C106.29279247 323.00549631 107.12717275 326.508691 108 330 C222.18 330 336.36 330 454 330 C448.3795972 335.6204028 448.3795972 335.6204028 445.13671875 337.91015625 C444.06647461 338.67295898 444.06647461 338.67295898 442.97460938 339.45117188 C442.21986328 339.98291016 441.46511719 340.51464844 440.6875 341.0625 C439.06551627 342.2188047 437.44443953 343.37638259 435.82421875 344.53515625 C435.01259277 345.11539551 434.2009668 345.69563477 433.36474609 346.29345703 C429.8726868 348.81353699 426.43442961 351.40221216 423 354 C414.42927151 360.46722715 405.7190586 366.73498726 397 373 C386.99221308 380.19915697 377.02057355 387.44258218 367.10571289 394.76928711 C361.02455095 399.25816363 354.90404491 403.68990813 348.76953125 408.10546875 C343.31916038 412.03392105 337.90332922 416.00714521 332.5 420 C324.12062325 426.19025495 315.68892429 432.30474458 307.23388672 438.39111328 C303.48640231 441.09012118 299.74338799 443.79531494 296 446.5 C291.51389621 449.74131453 287.02695169 452.98141954 282.53515625 456.21484375 C274.01996829 462.34816095 265.54549816 468.53260679 257.10571289 474.76928711 C251.02455095 479.25816363 244.90404491 483.68990813 238.76953125 488.10546875 C233.31916038 492.03392105 227.90332922 496.00714521 222.5 500 C216.33588907 504.55372987 210.15213714 509.07795493 203.9375 513.5625 C203.21119385 514.08835693 202.4848877 514.61421387 201.73657227 515.15600586 C197.81499926 517.99049608 193.87397399 520.79292028 189.90625 523.5625 C189.07488525 524.14829834 188.24352051 524.73409668 187.38696289 525.33764648 C185.78830732 526.46338172 184.18354967 527.580515 182.57202148 528.68774414 C181.49803101 529.44752563 181.49803101 529.44752563 180.40234375 530.22265625 C179.76804443 530.66359619 179.13374512 531.10453613 178.48022461 531.55883789 C176.60883897 533.38083846 176.37373189 534.42433419 176 537 C176.4532115 539.43328742 176.4532115 539.43328742 177.35742188 542.01879883 C177.84819214 543.54081657 177.84819214 543.54081657 178.34887695 545.09358215 C178.71843506 546.20352036 179.08799316 547.31345856 179.46875 548.45703125 C179.85119873 549.63339645 180.23364746 550.80976166 180.62768555 552.02177429 C181.46567229 554.59445076 182.30734679 557.16556059 183.15551758 559.73486328 C184.5220616 563.87462734 185.87433004 568.0189696 187.22460938 572.1640625 C188.90388586 577.31567942 190.58680309 582.46608121 192.27425385 587.61502647 C195.45271688 597.31376387 198.60742833 607.02004738 201.75 616.73046875 C201.98652094 617.46125956 202.22304188 618.19205036 202.46673012 618.94498634 C203.42411349 621.9032742 204.3813805 624.86159965 205.33841419 627.82000065 C207.02940458 633.0470031 208.72250427 638.27331881 210.41674805 643.49926758 C215.04533132 657.77722988 219.66757709 672.05718006 224.26953125 686.34375 C224.58655943 687.32788502 224.58655943 687.32788502 224.90999222 688.33190155 C225.9625778 691.59945601 227.01505734 694.86704463 228.06750488 698.13464355 C228.37608681 699.09270149 228.37608681 699.09270149 228.69090271 700.07011414 C229.10498533 701.35572495 229.51905802 702.64133895 229.93312073 703.92695618 C236.35144 723.85369607 242.83742923 743.75740947 249.36532593 763.64849854 C256.42891313 785.17894376 263.36856998 806.7480543 270.23803711 828.34118652 C271.892626 833.54025538 273.55880527 838.73535401 275.23730469 843.92675781 C275.79349991 845.65141769 275.79349991 845.65141769 276.3609314 847.41091919 C277.08188681 849.64547095 277.8051324 851.87928539 278.53091431 854.11227417 C278.85377411 855.1143692 279.17663391 856.11646423 279.50927734 857.14892578 C279.79749359 858.03863068 280.08570984 858.92833557 280.38265991 859.84500122 C281 862 281 862 281 864 C276.67373449 862.53938926 273.62121981 860.33620545 270.0625 857.5 C265.55160083 853.95264381 260.99619728 850.50365497 256.3125 847.1875 C255.73854492 846.78047852 255.16458984 846.37345703 254.57324219 845.95410156 C253.36016618 845.09404059 252.14694581 844.2341832 250.93359375 843.37451172 C237.01286409 833.47884152 223.2728269 823.33491072 209.54003906 813.18115234 C200.60478642 806.5759903 191.65356976 800.00135567 182.59765625 793.5625 C172.3613827 786.28183126 162.18458885 778.92550107 152.16015625 771.35546875 C147.52144142 767.8979347 142.8209434 764.52761299 138.125 761.1484375 C132.55564809 757.13590942 127.02007168 753.08000372 121.5 749 C113.12069391 742.80965071 104.68892297 736.69525446 96.23388672 730.60888672 C91.73476831 727.36853805 87.24175881 724.11972298 82.74755859 720.87255859 C79.012055 718.17401978 75.2751852 715.47742047 71.53515625 712.78515625 C63.01996829 706.65183905 54.54549816 700.46739321 46.10571289 694.23071289 C40.03607239 689.75034105 33.93743827 685.31195697 27.7980957 680.92749023 C23.74690113 678.02510858 19.76123237 675.05983806 15.82421875 672.00390625 C14.96634766 671.34648438 14.10847656 670.6890625 13.22460938 670.01171875 C11.56455849 668.73632939 9.91553191 667.44642814 8.27929688 666.140625 C4.31627097 662.8748331 4.31627097 662.8748331 -0.5 662.2265625 C-1.325 662.81179688 -2.15 663.39703125 -3 664 C-3.61705811 664.42627686 -4.23411621 664.85255371 -4.86987305 665.29174805 C-7.17971069 666.91913965 -9.43343728 668.60875493 -11.6875 670.3125 C-13.39786814 671.58930472 -15.10881941 672.86532862 -16.8203125 674.140625 C-18.1182373 675.11032227 -18.1182373 675.11032227 -19.44238281 676.09960938 C-23.28905023 678.95780517 -27.17284812 681.76322032 -31.0625 684.5625 C-31.80081055 685.09472168 -32.53912109 685.62694336 -33.29980469 686.17529297 C-36.27539233 688.3197145 -39.25248689 690.4620394 -42.22949219 692.60449219 C-50.68593036 698.6923875 -59.11888909 704.80868741 -67.5 711 C-77.35407821 718.27942622 -87.28574334 725.44830324 -97.22949219 732.60449219 C-105.68593036 738.6923875 -114.11888909 744.80868741 -122.5 751 C-132.35407821 758.27942622 -142.28574334 765.44830324 -152.22949219 772.60449219 C-160.68593036 778.6923875 -169.11888909 784.80868741 -177.5 791 C-187.35407821 798.27942622 -197.28574334 805.44830324 -207.22949219 812.60449219 C-215.68593036 818.6923875 -224.11888909 824.80868741 -232.5 831 C-240.1208945 836.62972386 -247.78040967 842.20259458 -255.47265625 847.734375 C-258.67950853 850.04178727 -261.87228402 852.36743149 -265.05859375 854.703125 C-266.29887329 855.60889282 -266.29887329 855.60889282 -267.56420898 856.53295898 C-269.15890152 857.69800999 -270.7509722 858.86666029 -272.34008789 860.03930664 C-273.05285889 860.55871826 -273.76562988 861.07812988 -274.5 861.61328125 C-275.1290625 862.07516846 -275.758125 862.53705566 -276.40625 863.01293945 C-278 864 -278 864 -280 864 C-277.7617608 855.33746866 -275.05666861 846.85960499 -272.23828125 838.37109375 C-271.7708386 836.95572645 -271.30370361 835.54025752 -270.83685303 834.12469482 C-269.84640695 831.12273963 -268.854492 828.12127597 -267.86135864 825.12020874 C-265.22784762 817.16085277 -262.60546405 809.19782881 -259.984375 801.234375 C-259.72275637 800.43971014 -259.46113773 799.64504528 -259.19159126 798.82629967 C-254.74107097 785.30338964 -250.37181346 771.7561058 -246.0625 758.1875 C-239.25881801 736.77595904 -232.24358646 715.43639576 -225.20869827 694.10003281 C-218.41108031 673.48200554 -211.66506775 652.85113611 -205.09814453 632.15817261 C-200.71344372 618.34899186 -196.22821892 604.57491752 -191.6875 590.81640625 C-191.4120636 589.98136944 -191.1366272 589.14633263 -190.85284424 588.28599167 C-188.08254184 579.88734152 -185.3088805 571.48983612 -182.52238464 563.09654331 C-181.48610858 559.97248465 -180.45331833 556.84728095 -179.42129517 553.72181511 C-178.93512705 552.25236337 -178.44733373 550.78344826 -177.95785522 549.3150959 C-177.28427552 547.29413695 -176.61612765 545.27145929 -175.94921875 543.24829102 C-175.57112061 542.10892593 -175.19302246 540.96956085 -174.8034668 539.79566956 C-173.86189204 537.0042582 -173.86189204 537.0042582 -174 534 C-175.38874612 532.57964674 -175.38874612 532.57964674 -177.3046875 531.3203125 C-178.02414551 530.81040771 -178.74360352 530.30050293 -179.48486328 529.77514648 C-180.2736084 529.23059814 -181.06235352 528.6860498 -181.875 528.125 C-183.53660674 526.95203312 -185.19806089 525.77885006 -186.859375 524.60546875 C-187.71466797 524.00653809 -188.56996094 523.40760742 -189.45117188 522.79052734 C-193.36680092 520.03983545 -197.24690436 517.24074858 -201.125 514.4375 C-201.87120605 513.89947754 -202.61741211 513.36145508 -203.38623047 512.80712891 C-208.96356286 508.77656377 -214.47245229 504.66099414 -219.96582031 500.51708984 C-227.13946519 495.1182762 -234.42683244 489.87982398 -241.71777344 484.64111328 C-245.48299047 481.93360484 -249.24121448 479.21642636 -253 476.5 C-257.48606504 473.25863196 -261.97304841 470.01858038 -266.46484375 466.78515625 C-278.19429082 458.33703193 -289.83697696 449.77496245 -301.45996094 441.18115234 C-310.39521358 434.5759903 -319.34643024 428.00135567 -328.40234375 421.5625 C-338.6386173 414.28183126 -348.81541115 406.92550107 -358.83984375 399.35546875 C-363.4756217 395.90012375 -368.17298149 392.53170741 -372.86621094 389.1550293 C-378.52329787 385.07977904 -384.14376613 380.95736655 -389.75 376.8125 C-396.26854344 371.99587465 -402.82448599 367.23976839 -409.4296875 362.54296875 C-420.16255441 354.9090282 -430.81562876 347.16240881 -441.4375 339.375 C-442.24856201 338.78299805 -443.05962402 338.19099609 -443.89526367 337.58105469 C-444.6504126 337.02579102 -445.40556152 336.47052734 -446.18359375 335.8984375 C-446.84931396 335.41036621 -447.51503418 334.92229492 -448.20092773 334.41943359 C-450 333 -450 333 -453 330 C-281.73 329.505 -281.73 329.505 -107 329 C-92.4245076 284.52457132 -92.4245076 284.52457132 -78.09277344 239.97949219 C-72.1003301 221.18236 -65.92014003 202.4475926 -59.74529648 183.70982742 C-53.43545547 164.56132326 -47.16901656 145.40207314 -41.0625 126.1875 C-33.62554489 102.78703714 -25.95412047 79.46498904 -18.26092815 56.14779568 C-17.02895438 52.41378838 -15.79750564 48.67960816 -14.56640625 44.9453125 C-14.32951143 44.22682695 -14.09261662 43.50834141 -13.84854317 42.76808357 C-9.15802263 28.53577746 -4.55785991 14.27535704 0 0 Z " fill="#00B579" transform="translate(478,614)"/>
<path d="M0 0 C0.76957031 0.63977783 0.76957031 0.63977783 1.5546875 1.29248047 C31.17834648 26.26394681 47.00752527 64.47328547 54.25 101.6875 C54.40098145 102.45658691 54.55196289 103.22567383 54.70751953 104.01806641 C57.37785826 118.6221399 58.38366383 133.23683185 58.3125 148.0625 C58.30976578 149.25965134 58.30976578 149.25965134 58.30697632 150.48098755 C58.11399609 201.04495099 43.85507001 253.80631121 8 291 C-20.65606648 318.94884084 -57.30915501 329.64644894 -96.59765625 329.2109375 C-132.61814481 328.32800224 -167.114383 316.07631466 -193.375 291 C-197.62289117 286.31267181 -201.27934908 281.11589501 -205 276 C-205.33 332.1 -205.66 388.2 -206 446 C-230.84352742 450.96870548 -256.66447378 447 -282 447 C-282 291.24 -282 135.48 -282 -25 C-258.24 -25 -234.48 -25 -210 -25 C-209.67 -10.15 -209.34 4.7 -209 20 C-204.545 13.07 -204.545 13.07 -200 6 C-180.45693523 -18.72158659 -151.57040108 -30.17015109 -121 -34 C-77.34530508 -37.95263837 -34.11719493 -28.50525584 0 0 Z M-180 53 C-199.4538127 75.12983949 -207.94627674 106.79560847 -208.23828125 135.78515625 C-208.25297203 137.00088066 -208.25297203 137.00088066 -208.26795959 138.24116516 C-208.6494191 177.99152478 -202.95143635 213.8785971 -174.8125 243.6875 C-156.64219675 261.2189037 -134.60453343 268.53119915 -109.56518555 268.35375977 C-96.57597129 268.05228383 -84.72841813 265.85618689 -73 260 C-72.02675781 259.51917969 -71.05351562 259.03835938 -70.05078125 258.54296875 C-61.50326386 253.95077313 -54.78929115 247.82775738 -48 241 C-47.3090625 240.3090625 -46.618125 239.618125 -45.90625 238.90625 C-22.21699427 213.49413931 -17.019613 174.51001341 -17.91113281 141.24609375 C-19.17922073 109.19552003 -28.51784654 74.39170229 -51.85546875 51.15234375 C-53.84609453 49.35051959 -55.89875361 47.67144599 -58 46 C-58.86109375 45.27941406 -59.7221875 44.55882812 -60.609375 43.81640625 C-95.13903787 16.14601425 -150.16102096 20.61566098 -180 53 Z " fill="#181919" transform="translate(2851,1100)"/>
<path d="M0 0 C0.53963379 0.45455566 1.07926758 0.90911133 1.63525391 1.37744141 C36.70644994 31.34886809 53.3956979 77.32719811 57.25 122.25 C61.24395936 174.55878993 49.89448685 228.42321687 15.53173828 269.23681641 C-12.83856838 301.89387007 -54.75553592 320.30650458 -97.515625 323.68359375 C-147.92123266 326.93826047 -196.40374079 315.50863997 -234.9453125 281.734375 C-271.60963577 249.06771938 -286.7115206 201.66753915 -289.6875 153.8515625 C-292.35371474 105.81425028 -280.72886346 54.2827893 -249 17 C-248.4951709 16.40477539 -247.9903418 15.80955078 -247.47021484 15.19628906 C-219.22265689 -17.62110364 -177.42259247 -35.7661926 -134.65625 -39.1875 C-85.89385177 -42.53393909 -38.020453 -32.09208309 0 0 Z M-184.8125 51.875 C-210.26686133 81.4243957 -215.23913603 122.61790406 -212.79785156 160.10400391 C-210.54330961 184.41477236 -202.89954717 210.06759123 -187 229 C-186.27941406 229.85851563 -185.55882813 230.71703125 -184.81640625 231.6015625 C-169.09735542 249.63624474 -149.47817229 261.41245009 -125.22216797 263.20532227 C-122.41543166 263.30221737 -119.62082774 263.32930771 -116.8125 263.3125 C-115.8121875 263.30686035 -114.811875 263.3012207 -113.78125 263.29541016 C-87.85451527 262.87522399 -67.93328707 252.90668726 -49.66015625 234.6640625 C-24.2183097 207.78703487 -17.88188432 169.53319979 -18.65234375 133.9375 C-18.96756763 123.07293986 -20.52556765 112.57170672 -23 102 C-23.20367188 101.12456543 -23.40734375 100.24913086 -23.6171875 99.34716797 C-28.11057194 80.87783237 -36.54761422 64.36658748 -49 50 C-49.69351563 49.19433594 -50.38703125 48.38867188 -51.1015625 47.55859375 C-67.0977707 30.33421226 -89.63171763 21.92320827 -112.7578125 20.875 C-141.80194884 20.25539176 -165.09796187 31.08021321 -184.8125 51.875 Z " fill="#181919" transform="translate(3533,1105)"/>
<path d="M0 0 C1.49587165 1.47170684 2.97375858 2.95931109 4.44726562 4.45336914 C5.25679687 5.25258789 6.06632812 6.05180664 6.90039062 6.87524414 C23.84398493 24.52975849 32.04795777 47.46029055 34.44726562 71.45336914 C8.04726562 71.45336914 -18.35273438 71.45336914 -45.55273438 71.45336914 C-47.20273438 66.17336914 -48.85273438 60.89336914 -50.55273438 55.45336914 C-57.88699122 42.14305116 -67.31285285 35.10441072 -81.83789062 30.77172852 C-90.2330082 28.56433116 -98.86389567 26.78755524 -107.55273438 26.45336914 C-108.52210938 26.40180664 -109.49148437 26.35024414 -110.49023438 26.29711914 C-130.45708557 25.73201958 -154.46348089 28.20240751 -169.55273438 42.45336914 C-175.95888084 50.46105222 -176.28643049 58.51790096 -175.55273438 68.45336914 C-172.83165546 78.96797297 -165.30743309 84.87271456 -156.39257812 90.28930664 C-136.60337195 101.72086313 -112.17856569 105.77823629 -90.03939819 110.22576904 C-70.58718704 114.14726802 -51.4748333 118.43633039 -32.55273438 124.45336914 C-31.0871532 124.89535002 -29.62105704 125.33562925 -28.15429688 125.77368164 C-1.16646237 134.1760796 22.76409828 150.0484136 36.84570312 175.12524414 C47.90815333 198.11355529 48.61569746 226.7555704 40.49804688 250.81494141 C29.7921163 280.01196835 6.10144727 299.57008753 -21.35449219 312.33129883 C-71.44085709 334.8268636 -135.03957615 335.71232828 -186.14208984 316.40356445 C-204.91030844 309.00576146 -222.89608084 298.49461092 -235.55273438 282.45336914 C-236.61427734 281.14625977 -236.61427734 281.14625977 -237.69726562 279.81274414 C-252.35325155 261.13697332 -259.69153111 239.81552474 -261.08886719 216.16992188 C-261.13395416 215.42725822 -261.17904114 214.68459457 -261.22549438 213.91942596 C-261.33591212 212.0974876 -261.44450563 210.27543884 -261.55273438 208.45336914 C-251.53045674 208.43024504 -241.50818541 208.41245371 -231.48588657 208.40155697 C-226.83262251 208.39632829 -222.17937664 208.38923091 -217.52612305 208.37792969 C-213.03928892 208.36710028 -208.55247233 208.36109219 -204.06562614 208.3584919 C-202.34993145 208.35663774 -200.63423776 208.35301732 -198.91855049 208.34763908 C-196.52388525 208.34042793 -194.12929341 208.33937823 -191.73461914 208.33984375 C-191.01820755 208.33624847 -190.30179596 208.3326532 -189.56367493 208.32894897 C-184.66678654 208.33931698 -184.66678654 208.33931698 -183.55273438 209.45336914 C-183.10974224 211.71921404 -182.69909513 213.99140365 -182.30273438 216.26586914 C-179.72878415 229.80491181 -174.0631066 242.80851914 -163.15820312 251.73071289 C-146.91238729 262.47194945 -128.50016115 266.64087744 -109.25219727 266.63867188 C-107.15229154 266.64083104 -105.05293612 266.65894102 -102.953125 266.67797852 C-81.47018413 266.76852249 -56.47370259 263.84698807 -40.16992188 248.34790039 C-32.45769749 239.31304816 -31.8745151 229.90242677 -32.37792969 218.49584961 C-33.08347223 210.25203832 -37.62283082 203.92536508 -43.55273438 198.45336914 C-61.73388901 183.18119924 -86.25947015 179.03880726 -108.77148438 174.15258789 C-157.29111855 163.61066422 -157.29111855 163.61066422 -176.55273438 157.45336914 C-177.6585083 157.10459717 -177.6585083 157.10459717 -178.78662109 156.7487793 C-197.7374017 150.68900901 -214.64987308 141.76748696 -229.55273438 128.45336914 C-229.55273438 127.79336914 -229.55273438 127.13336914 -229.55273438 126.45336914 C-230.21273438 126.45336914 -230.87273437 126.45336914 -231.55273438 126.45336914 C-245.93432326 110.69926347 -252.8794043 90.56080314 -253.55273438 69.45336914 C-253.59269531 68.49301758 -253.63265625 67.53266602 -253.67382812 66.54321289 C-254.19042924 43.47849258 -246.80575024 23.62285687 -231.55273438 6.45336914 C-230.93785156 5.75469727 -230.32296875 5.05602539 -229.68945312 4.33618164 C-208.66432923 -18.08461429 -177.0977019 -28.16534605 -147.55273438 -32.54663086 C-146.45421143 -32.71219482 -146.45421143 -32.71219482 -145.33349609 -32.88110352 C-96.8457053 -39.94459219 -37.15791801 -35.57971744 0 0 Z " fill="#181919" transform="translate(2249.552734375,1100.546630859375)"/>
<path d="M0 0 C127.05 0 254.1 0 385 0 C385 23.76 385 47.52 385 72 C335.17 72 285.34 72 234 72 C234 204.99 234 337.98 234 475 C206.54179555 480.49164089 178.00198406 476 150 476 C150 342.68 150 209.36 150 72 C100.5 72 51 72 0 72 C0 48.24 0 24.48 0 0 Z " fill="#181919" transform="translate(1020,944)"/>
<path d="M0 0 C0.70706085 0.00359528 1.4141217 0.00719055 2.14260864 0.01089478 C3.25473473 0.01067574 3.25473473 0.01067574 4.389328 0.01045227 C6.85130696 0.01115152 9.31321119 0.01894442 11.775177 0.02676392 C13.47768614 0.02862806 15.18019582 0.03005198 16.88270569 0.03105164 C21.37245148 0.03487714 25.86216513 0.0447077 30.35189819 0.05575562 C34.92983566 0.06596903 39.50777831 0.07054911 44.08572388 0.07559204 C53.07467032 0.08632994 62.06359287 0.10340675 71.05252075 0.12442017 C71.05490911 1.27588154 71.05729746 2.42734291 71.05975819 3.61369705 C71.11728266 31.028683 71.19012881 58.44359407 71.28150703 85.85848893 C71.29277341 89.24254247 71.30391215 92.62659642 71.31497192 96.01065063 C71.31717561 96.68427398 71.31937929 97.35789732 71.32164975 98.0519335 C71.35689456 108.91834106 71.3818307 119.78474856 71.40286777 130.65119186 C71.42473252 141.824893 71.45810021 152.99852809 71.50122231 164.17216945 C71.52504822 170.43823992 71.54384642 176.70422989 71.55013466 182.97034454 C71.55623392 188.88337008 71.57640619 194.79618988 71.60679626 200.70913887 C71.61549958 202.86477536 71.61931533 205.02043883 71.61752892 207.17609215 C71.60371883 231.55743264 72.89978469 258.07446522 90.36502075 276.93692017 C103.47408134 289.16814188 119.87782851 292.51395655 137.17752075 292.43692017 C138.46908081 292.43200562 139.76064087 292.42709106 141.09133911 292.42202759 C162.24673451 292.16187106 181.00563232 286.30363046 196.66970825 271.59707642 C216.90441656 250.59942009 219.34954496 222.44992487 219.35549927 194.81460571 C219.36317426 192.69596029 219.37172321 190.57731789 219.381073 188.4586792 C219.39924445 183.92499658 219.41135063 179.39135432 219.41861153 174.85764122 C219.43015283 167.6941473 219.4556278 160.53074305 219.48292542 153.36729431 C219.52444384 142.0500234 219.55692748 130.73274812 219.58539957 119.41543752 C219.6365595 99.10732773 219.69842456 78.79925473 219.77073997 58.49120933 C219.79570045 51.36295739 219.81511279 44.23471763 219.83012211 37.10643804 C219.84028808 32.69019108 219.85443192 28.2739632 219.86959839 23.85773087 C219.87577942 21.80213302 219.88022433 19.74652915 219.88285637 17.69092369 C219.88663853 14.89814615 219.89642541 12.10545388 219.90776062 9.31269836 C219.90737449 8.488607 219.90698835 7.66451563 219.90659052 6.8154518 C219.93845442 1.2384865 219.93845442 1.2384865 221.05252075 0.12442017 C223.389664 0.02418462 225.697264 -0.01177186 228.03494263 -0.00497437 C228.76500015 -0.00672668 229.49505768 -0.008479 230.24723816 -0.01028442 C232.67193953 -0.01470283 235.09656857 -0.011765 237.52127075 -0.00839233 C239.19896458 -0.00906538 240.87665831 -0.0100354 242.55435181 -0.0112915 C246.07507249 -0.01276846 249.59576785 -0.01061399 253.1164856 -0.00595093 C257.63962571 -0.00025364 262.16270649 -0.00353265 266.68584442 -0.00952339 C270.15154471 -0.01312907 273.61723082 -0.01199039 277.08293152 -0.0093956 C278.751175 -0.00872635 280.41941974 -0.00955469 282.08766174 -0.01187515 C284.41517569 -0.01440179 286.74259223 -0.01056096 289.07009888 -0.00497437 C289.76623795 -0.0069986 290.46237701 -0.00902283 291.17961121 -0.0111084 C295.93825802 0.01015743 295.93825802 0.01015743 297.05252075 1.12442017 C297.15004282 2.94887805 297.17623466 4.77716381 297.17556858 6.60422611 C297.17755963 7.80102184 297.17955068 8.99781757 297.18160206 10.23087984 C297.17874847 11.5760138 297.17580287 12.92114756 297.17277527 14.26628113 C297.17321085 15.6819509 297.1740855 17.0976206 297.17536443 18.51328987 C297.17761205 22.42178053 297.17358449 26.33024406 297.16858637 30.23873127 C297.16428586 34.4466603 297.16572801 38.65458769 297.16648865 42.86251831 C297.16701414 50.15913318 297.16386474 57.45573913 297.15825081 64.75235176 C297.15013918 75.3021541 297.14752094 85.85195211 297.14626282 96.40175723 C297.14407177 113.51626386 297.13741024 130.63076573 297.12796021 147.74526978 C297.11878746 164.37482682 297.11170595 181.00438258 297.10745239 197.63394165 C297.10705831 199.17035679 297.10705831 199.17035679 297.10665626 200.73781062 C297.10535127 205.87607642 297.10408755 211.01434222 297.10284436 216.15260804 C297.09247009 258.80988204 297.07485034 301.46715086 297.05252075 344.12442017 C293.00887071 344.98985175 289.31075418 345.2510937 285.16677856 345.2538147 C284.15859825 345.25644318 284.15859825 345.25644318 283.13005066 345.25912476 C280.92188898 345.26350487 278.71380816 345.2606202 276.50564575 345.25723267 C274.96819036 345.25790649 273.43073506 345.25887718 271.89328003 345.26013184 C268.67893454 345.26160333 265.46461691 345.2594707 262.25027466 345.25479126 C258.12184069 345.24907505 253.99347146 345.25238835 249.86503983 345.25836372 C246.69444282 345.26196777 243.52386131 345.26083181 240.35326385 345.25823593 C238.83015688 345.25756722 237.30704852 345.25839314 235.78394318 345.26071548 C233.66281874 345.26324152 231.54180123 345.25940305 229.42068481 345.2538147 C228.21220886 345.2530191 227.00373291 345.25222351 225.75863647 345.25140381 C223.05252075 345.12442017 223.05252075 345.12442017 222.05252075 344.12442017 C221.95948057 342.65087669 221.9350581 341.17291426 221.93899536 339.69644165 C221.93907089 338.75554184 221.93914642 337.81464203 221.93922424 336.8452301 C221.94438553 335.82232376 221.94954681 334.79941742 221.9548645 333.74551392 C221.95698692 332.18281517 221.95698692 332.18281517 221.95915222 330.58854675 C221.96476995 327.24630923 221.97732545 323.9041376 221.99002075 320.56192017 C221.99503347 318.30215551 221.99959677 316.0423898 222.00369263 313.78262329 C222.01474514 308.22986626 222.03150051 302.67714792 222.05252075 297.12442017 C221.39252075 297.12442017 220.73252075 297.12442017 220.05252075 297.12442017 C219.78568481 297.85274048 219.51884888 298.58106079 219.243927 299.33145142 C209.63423648 321.85908656 185.20791494 337.5907618 163.31814575 346.55410767 C129.47763277 359.55128866 87.12237746 356.61387438 54.05252075 342.12442017 C30.27172684 330.78022519 13.35060542 311.13267284 4.28689575 286.54238892 C-2.19200646 267.63234152 -4.91420715 248.01330917 -5.50167847 228.10488892 C-5.52264076 227.40544851 -5.54360305 226.70600811 -5.56520057 225.98537254 C-6.16876395 205.26531038 -6.09404689 184.53694314 -6.08180475 163.81010056 C-6.07923092 158.07185574 -6.08163139 152.33361233 -6.08319092 146.59536743 C-6.08499351 137.00446275 -6.08265214 127.41356585 -6.07785034 117.82266235 C-6.07236143 106.73106048 -6.07421117 95.63947687 -6.07967675 84.5478754 C-6.08420356 74.9769961 -6.08486205 65.4061223 -6.08223808 55.83524227 C-6.08067928 50.13757463 -6.08047171 44.43991562 -6.08377457 38.74224854 C-6.08664862 33.41660569 -6.08468636 28.09098677 -6.07888031 22.76534653 C-6.07755233 20.80809443 -6.07794747 18.85084034 -6.08014297 16.89358902 C-6.08285172 14.23539761 -6.0794774 11.57728426 -6.07446289 8.9190979 C-6.07669361 8.13520345 -6.07892433 7.35130899 -6.08122265 6.54366016 C-6.05912146 0.55858778 -6.04063393 0.01295754 0 0 Z " fill="#181919" transform="translate(1639.9474792480469,1074.8755798339844)"/>
<path d="M0 0 C25.41 0 50.82 0 77 0 C77 33.99 77 67.98 77 103 C99.44 103 121.88 103 145 103 C145 121.81 145 140.62 145 160 C122.56 160 100.12 160 77 160 C77.06291622 186.26074359 77.13812986 212.52135828 77.23571491 238.78199387 C77.2806348 250.97591028 77.32005829 263.16979774 77.34643555 275.36376953 C77.3694464 285.99498404 77.40287901 296.62610661 77.44870156 307.25724816 C77.47259203 312.8836682 77.4913482 318.50999742 77.49761391 324.13646698 C77.50368361 329.43882238 77.52375157 334.74094555 77.55427551 340.0432148 C77.56302555 341.98290198 77.56678465 343.92261956 77.56500816 345.86232567 C77.36386608 366.6273997 77.36386608 366.6273997 87.1875 384.25 C96.0811041 389.78379811 106.16737516 390.19462699 116.375 390.1875 C117.33293457 390.18814453 118.29086914 390.18878906 119.27783203 390.18945312 C127.95535636 390.12606095 136.42482268 389.27376639 145 388 C145.80269779 391.52862842 146.12628252 394.78526573 146.12939453 398.40112305 C146.13254669 399.45538986 146.13569885 400.50965668 146.13894653 401.59587097 C146.13591019 403.28671562 146.13591019 403.28671562 146.1328125 405.01171875 C146.13376923 406.17629105 146.13472595 407.34086334 146.13571167 408.54072571 C146.13639125 410.99761001 146.13455247 413.45449612 146.13037109 415.91137695 C146.12500527 419.68379715 146.13033107 423.45609906 146.13671875 427.22851562 C146.13605821 429.6145836 146.13477756 432.0006515 146.1328125 434.38671875 C146.13483673 435.52002121 146.13686096 436.65332367 146.13894653 437.82096863 C146.13421829 439.38818413 146.13421829 439.38818413 146.12939453 440.98706055 C146.12859894 441.90907761 146.12780334 442.83109467 146.12698364 443.78105164 C146 446 146 446 145 448 C142.82055664 448.48657227 142.82055664 448.48657227 139.91015625 448.81640625 C138.82863281 448.94047852 137.74710938 449.06455078 136.6328125 449.19238281 C134.86550781 449.37559082 134.86550781 449.37559082 133.0625 449.5625 C131.85207031 449.69108398 130.64164063 449.81966797 129.39453125 449.95214844 C96.28507795 453.29228779 53.52184333 456.54544703 25.34765625 434.96875 C7.73643938 419.92638732 3.29794324 399.66516664 1.18603373 377.45426106 C0.58041342 369.4645789 0.74252518 361.43216787 0.77294922 353.42553711 C0.77351474 351.31468206 0.77319403 349.20382662 0.77206421 347.0929718 C0.77149519 341.41643829 0.78317577 335.73999094 0.79721212 330.06347728 C0.80979536 324.11113479 0.81089593 318.15878989 0.81326294 312.20643616 C0.81945554 300.95887224 0.83583605 289.71134764 0.85596192 278.46380097 C0.87839036 265.64866211 0.88933175 252.83352128 0.89935279 240.01836765 C0.92020445 213.67888501 0.95685267 187.3394562 1 161 C-17.81 161 -36.62 161 -56 161 C-56 141.86 -56 122.72 -56 103 C-37.52 103 -19.04 103 0 103 C0 69.01 0 35.02 0 0 Z " fill="#181919" transform="translate(2371,972)"/>
<path d="M0 0 C25.08 0 50.16 0 76 0 C76.68807804 3.4403902 77.12462914 5.91093577 77.12025452 9.2837677 C77.12231651 10.5183371 77.12231651 10.5183371 77.12442017 11.77784729 C77.12082489 12.66689255 77.11722961 13.55593781 77.11352539 14.47192383 C77.11367142 15.41875031 77.11381744 16.36557678 77.1139679 17.34109497 C77.11327258 20.46309723 77.10549801 23.58503944 77.09765625 26.70703125 C77.09579072 28.87464872 77.09436745 31.0422666 77.09336853 33.20988464 C77.08955402 38.90954761 77.07973281 44.60918501 77.06866455 50.30883789 C77.05662704 57.15043357 77.05204312 63.99203781 77.04621124 70.83364105 C77.03652051 81.22244514 77.01735646 91.61119315 77 102 C110.66 102.495 110.66 102.495 145 103 C145 121.81 145 140.62 145 160 C122.56 160.33 100.12 160.66 77 161 C76.9773701 184.81013196 76.95897263 208.62025512 76.94818783 232.43039513 C76.94304572 243.48745485 76.93604303 254.54450739 76.92456055 265.6015625 C76.91454971 275.24614518 76.90813143 284.89072265 76.90591151 294.53531039 C76.90461521 299.63541791 76.90159853 304.73551053 76.89426994 309.83561325 C76.88740843 314.65034586 76.88540333 319.46505765 76.88689232 324.27979469 C76.88662049 326.0331477 76.88467614 327.78650151 76.88079453 329.53985023 C76.86238122 338.2977063 76.97161038 347.02789655 77.43287659 355.77505493 C77.47010108 356.50490266 77.50732557 357.23475039 77.54567808 357.98671472 C78.12176191 367.76408218 79.59938012 377.03668948 87 384 C95.56693736 390.27490588 106.4503409 390.1762833 116.625 390.25 C117.91978271 390.26401855 117.91978271 390.26401855 119.24072266 390.27832031 C128.03200273 390.23657177 136.09630567 389.04749345 145 388 C145 407.8 145 427.6 145 448 C55.26872708 457.97014144 55.26872708 457.97014144 25.17578125 434.828125 C7.46837778 419.47641496 2.73972657 398.55301927 1 376 C0.66879141 368.78291182 0.74563585 361.55641599 0.77294922 354.33374023 C0.77351473 352.2130331 0.77319405 350.09232557 0.77206421 347.97161865 C0.77149515 342.26822666 0.78317632 336.56492042 0.79721212 330.86154819 C0.80979475 324.88117846 0.81089588 318.90080633 0.81326294 312.92042542 C0.81945572 301.61973764 0.83583646 290.31908899 0.85596192 279.01841837 C0.87838981 266.14282114 0.88933161 253.26722195 0.89935279 240.39161003 C0.92020485 213.92771339 0.95685329 187.46387033 1 161 C-17.81 161 -36.62 161 -56 161 C-56 141.86 -56 122.72 -56 103 C-37.52 103 -19.04 103 0 103 C0 69.01 0 35.02 0 0 Z " fill="#181919" transform="translate(3669,972)"/>
<path d="M0 0 C25.41 0 50.82 0 77 0 C77 156.75 77 313.5 77 475 C72.71764752 475.8564705 69.25658654 476.12663498 64.93066406 476.12939453 C64.23903671 476.13114685 63.54740936 476.13289917 62.83482361 476.13470459 C60.56173147 476.13908601 58.28871785 476.13619953 56.015625 476.1328125 C54.43332911 476.1334863 52.85103333 476.13445696 51.26873779 476.13571167 C47.9602357 476.13718335 44.65176066 476.13504996 41.34326172 476.13037109 C37.09376006 476.12465542 32.84432131 476.12796773 28.59482193 476.13394356 C25.33157879 476.13754757 22.0683507 476.13641165 18.80510712 476.13381577 C17.23734276 476.13314702 15.66957705 476.13397311 14.10181427 476.13629532 C11.91842489 476.13882124 9.7351394 476.13498302 7.55175781 476.12939453 C5.68574921 476.12820114 5.68574921 476.12820114 3.78204346 476.12698364 C1 476 1 476 0 475 C-0.09884129 472.47727839 -0.13177608 469.98193081 -0.12304783 467.45870113 C-0.12420167 466.65556979 -0.12535552 465.85243844 -0.12654433 465.02496979 C-0.1292184 462.29892923 -0.12468237 459.57294621 -0.12025452 456.84690857 C-0.12069006 454.8867652 -0.12156465 452.92662189 -0.12284368 450.96647888 C-0.12509202 445.55298331 -0.12106276 440.13950733 -0.11606562 434.72601426 C-0.11176613 428.8984382 -0.11320719 423.07086333 -0.1139679 417.24328613 C-0.11449345 407.13759027 -0.11134337 397.03190084 -0.10573006 386.92620659 C-0.09761931 372.31488471 -0.09499693 357.70356533 -0.09374207 343.09224153 C-0.09163987 319.38904795 -0.08489754 295.68585771 -0.07543945 271.98266602 C-0.06625981 248.95076516 -0.05917385 225.91886521 -0.05493164 202.88696289 C-0.05480011 202.17741786 -0.05466859 201.46787283 -0.05453308 200.73682643 C-0.05321459 193.61149109 -0.05193877 186.48615575 -0.05069422 179.3608204 C-0.04815779 164.84480002 -0.04533653 150.32877969 -0.04234314 135.8127594 C-0.04220585 135.14528945 -0.04206856 134.4778195 -0.04192711 133.79012319 C-0.03272148 89.193414 -0.0166479 44.59670694 0 0 Z " fill="#181919" transform="translate(3109,944)"/>
<path d="M0 0 C1 1 1 1 1.12025452 3.89161682 C1.11803391 5.18623337 1.11581329 6.48084991 1.11352539 7.81469727 C1.11367142 8.52685394 1.11381744 9.23901062 1.1139679 9.9727478 C1.1132687 12.33733112 1.10547606 14.70183661 1.09765625 17.06640625 C1.09579209 18.70165463 1.09436818 20.33690357 1.09336853 21.97215271 C1.08954318 26.28434785 1.07971275 30.59650952 1.06866455 34.90869141 C1.0584508 39.30565946 1.05387099 43.70263289 1.04882812 48.09960938 C1.03809049 56.73308831 1.02101387 65.36654 1 74 C-1.06860886 73.8458862 -3.13711054 73.69033346 -5.20556641 73.53417969 C-6.35747467 73.44771179 -7.50938293 73.3612439 -8.69619751 73.27215576 C-11.3785698 73.05119126 -14.04046491 72.7836433 -16.7109375 72.453125 C-39.69793002 69.79312678 -64.27968517 73.64223641 -83 88 C-106.31829836 107.04026429 -119.0312128 134.7237598 -122.7362299 164.29901218 C-123.93977026 176.62318317 -124.15882987 188.9793096 -124.20532227 201.35180664 C-124.21493491 203.00946782 -124.22494676 204.66712673 -124.23532104 206.32478333 C-124.26201026 210.76576896 -124.28321111 215.20676484 -124.30332303 219.64778447 C-124.32540859 224.31089779 -124.35268529 228.9739809 -124.37937927 233.6370697 C-124.42900466 242.44089637 -124.47405346 251.24474009 -124.51740164 260.04859966 C-124.57633952 271.96391332 -124.64246152 283.87918707 -124.70815182 295.79446507 C-124.81125393 314.52961635 -124.90485637 333.26480269 -125 352 C-150.08 352 -175.16 352 -201 352 C-201 238.48 -201 124.96 -201 8 C-177.24 8 -153.48 8 -129 8 C-128.67 28.79 -128.34 49.58 -128 71 C-125.69 65.72 -123.38 60.44 -121 55 C-117.77845414 50.06029635 -114.68472237 45.52996335 -111 41 C-110.5555957 40.4524707 -110.11119141 39.90494141 -109.65332031 39.34082031 C-94.12153302 20.60706112 -73.33727293 7.56880485 -50 1 C-48.77410156 0.65001953 -48.77410156 0.65001953 -47.5234375 0.29296875 C-32.54519692 -3.49244114 -15.15279158 -2.70729876 0 0 Z " fill="#181919" transform="translate(1588,1067)"/>
<path d="M0 0 C25.41 0 50.82 0 77 0 C77 113.52 77 227.04 77 344 C72.08238916 344.70251583 67.88428164 345.12611582 62.99487305 345.12939453 C62.33382065 345.13114685 61.67276825 345.13289917 60.99168396 345.13470459 C58.83166796 345.13906541 56.67173541 345.13620736 54.51171875 345.1328125 C53.00193771 345.1334868 51.49215677 345.13445787 49.9823761 345.13571167 C46.83125771 345.13718046 43.6801678 345.13505897 40.52905273 345.13037109 C36.48597058 345.1246497 32.44295447 345.12797313 28.39987469 345.13394356 C25.28843179 345.13755041 22.17700466 345.13641044 19.06556129 345.13381577 C17.57398279 345.13314811 16.08240287 345.13396931 14.59082603 345.13629532 C12.51322987 345.13882651 10.43574234 345.13497578 8.3581543 345.12939453 C7.17569626 345.12859894 5.99323822 345.12780334 4.77494812 345.12698364 C2 345 2 345 0 344 C0 230.48 0 116.96 0 0 Z " fill="#181919" transform="translate(2966,1075)"/>
<path d="M0 0 C1.8588562 0.63604736 1.8588562 0.63604736 4 2 C5.22683716 4.55389404 5.22683716 4.55389404 6.25830078 7.82324219 C6.65195831 9.0450116 7.04561584 10.26678101 7.45120239 11.52557373 C7.86621224 12.86591263 8.28090784 14.20634886 8.6953125 15.546875 C9.13187025 16.92012446 9.56978718 18.29294251 10.00900269 19.66534424 C11.162565 23.28222793 12.29783127 26.90460277 13.42932129 30.52844238 C14.57889154 34.19944239 15.74506992 37.86515109 16.91015625 41.53125 C18.96281787 47.99597715 21.0004749 54.46523664 23.02713013 60.93817139 C23.68468695 63.00764271 24.40717604 65.05741664 25.18746948 67.08380127 C26.05790962 70.20783954 25.90431495 71.92532917 25 75 C24.39994644 75.15461197 23.79989288 75.30922394 23.18165588 75.46852112 C15.30803586 77.49764751 7.43507711 79.5293313 -0.4375 81.5625 C-1.4088986 81.8133498 -1.4088986 81.8133498 -2.39992142 82.06926727 C-22.26068909 87.19863976 -42.10526701 92.3861965 -61.9375 97.625 C-82.51919994 103.06078844 -103.12540352 108.39157402 -123.76123047 113.61816406 C-125.79526007 114.13341351 -127.82927732 114.64871174 -129.86328125 115.1640625 C-130.83231384 115.40954834 -131.80134644 115.65503418 -132.79974365 115.90795898 C-138.57649755 117.37468529 -144.34480281 118.86979107 -150.10546875 120.3984375 C-150.76746277 120.57344788 -151.42945679 120.74845825 -152.11151123 120.92877197 C-155.01807228 121.69758986 -157.92252715 122.4728903 -160.82373047 123.26171875 C-161.77006348 123.51308594 -162.71639648 123.76445313 -163.69140625 124.0234375 C-164.88552124 124.34707275 -164.88552124 124.34707275 -166.10375977 124.67724609 C-168 125 -168 125 -170 124 C-160.69978921 117.12058395 -151.38911073 110.25777426 -142 103.5 C-135.80344165 99.03980999 -129.64023962 94.53740354 -123.5 90 C-113.6460488 82.72040486 -103.71425404 75.55169487 -93.77050781 68.39550781 C-85.31406964 62.3076125 -76.88111091 56.19131259 -68.5 50 C-58.64592179 42.72057378 -48.71425666 35.55169676 -38.77050781 28.39550781 C-25.76997811 19.03626433 -12.80748076 9.62253283 0 0 Z " fill="#005227" transform="translate(650,1149)"/>
<path d="M0 0 C25.41 0 50.82 0 77 0 C77 23.76 77 47.52 77 72 C51.59 72 26.18 72 0 72 C0 48.24 0 24.48 0 0 Z " fill="#181919" transform="translate(2966,944)"/>
</svg>
